<?xml version="1.0" standalone="no"?>
<!DOCTYPE svg PUBLIC "-//W3C//DTD SVG 20010904//EN"
 "http://www.w3.org/TR/2001/REC-SVG-20010904/DTD/svg10.dtd">
<svg version="1.0" xmlns="http://www.w3.org/2000/svg"
 width="300.000000pt" height="300.000000pt" viewBox="0 0 300.000000 300.000000"
 preserveAspectRatio="xMidYMid meet">
<metadata>
Created by potrace 1.14, written by Peter Selinger 2001-2017
</metadata>
<g transform="translate(0.000000,300.000000) scale(0.100000,-0.100000)"
fill="#000000" stroke="none">
<path d="M1300 2965 c-325 -45 -609 -186 -844 -420 -211 -209 -343 -455 -408
-759 -31 -145 -31 -427 0 -572 85 -395 306 -729 622 -939 75 -50 210 -125 225
-125 6 0 -28 21 -75 46 -47 25 -89 50 -95 55 -5 6 36 -13 92 -43 55 -29 99
-56 97 -60 -2 -3 22 -16 53 -28 350 -131 716 -131 1066 0 31 12 55 25 53 28
-2 4 42 31 97 60 56 30 98 49 92 43 -5 -5 -48 -30 -95 -55 -47 -25 -81 -46
-76 -46 17 0 180 91 245 138 316 224 519 537 603 926 31 145 31 427 0 572 -85
395 -306 729 -622 939 -75 50 -210 125 -225 125 -5 0 28 -21 75 -46 47 -25 90
-50 95 -55 6 -6 -36 13 -92 43 -55 29 -99 56 -97 60 2 3 -22 16 -53 28 -238
89 -491 118 -733 85z m475 -24 c50 -10 84 -19 76 -20 -8 0 -53 6 -100 16 -53
10 -141 17 -227 17 -81 1 -140 5 -136 10 8 14 288 -2 387 -23z m-505 -1 c-58
-11 -112 -19 -120 -18 -27 1 154 36 190 36 19 0 -12 -8 -70 -18z m-155 -30
c-11 -5 -27 -9 -35 -9 -9 0 -8 4 5 9 11 5 27 9 35 9 9 0 8 -4 -5 -9z m830 -10
c28 -10 43 -18 35 -18 -8 0 -37 8 -65 18 -27 10 -43 18 -35 18 8 0 38 -8 65
-18z m-895 -10 c-8 -5 -22 -9 -30 -9 -10 0 -8 3 5 9 27 12 43 12 25 0z m-60
-20 c-8 -5 -19 -10 -25 -10 -5 0 -3 5 5 10 8 5 20 10 25 10 6 0 3 -5 -5 -10z
m1040 0 c8 -5 11 -10 5 -10 -5 0 -17 5 -25 10 -8 5 -10 10 -5 10 6 0 17 -5 25
-10z m-1111 -23 c-14 -12 -202 -107 -194 -99 13 14 177 102 189 102 5 0 7 -1
5 -3z m-209 -111 c0 -2 -12 -11 -27 -20 l-28 -17 24 20 c23 21 31 25 31 17z
m1695 -75 c86 -64 221 -204 286 -297 55 -76 159 -261 159 -280 0 -5 -22 32
-48 81 -27 50 -57 104 -67 120 -91 143 -227 289 -355 383 -41 30 -79 60 -85
65 -17 18 47 -24 110 -72z m-1755 35 c0 -2 -24 -21 -52 -43 -70 -53 -196 -179
-251 -250 -57 -75 -90 -127 -149 -238 -26 -49 -48 -85 -48 -80 0 15 86 171
135 244 82 125 196 245 324 343 37 28 41 31 41 24z m190 -610 c0 -2 -8 -10
-17 -17 -16 -13 -17 -12 -4 4 13 16 21 21 21 13z m181 -13 c13 -16 12 -17 -3
-4 -10 7 -18 15 -18 17 0 8 8 3 21 -13z m-880 -30 c-12 -20 -14 -14 -5 12 4 9
9 14 11 11 3 -2 0 -13 -6 -23z m2729 -8 c0 -5 -5 -3 -10 5 -5 8 -10 20 -10 25
0 6 5 3 10 -5 5 -8 10 -19 10 -25z m-1810 -20 c0 -5 -5 -3 -10 5 -5 8 -10 20
-10 25 0 6 5 3 10 -5 5 -8 10 -19 10 -25z m-940 -32 c-11 -17 -11 -17 -6 0 3
10 6 24 7 30 0 9 2 9 5 0 3 -7 0 -20 -6 -30z m2769 -8 c0 -5 -4 -3 -9 5 -5 8
-9 22 -9 30 0 16 17 -16 18 -35z m-1822 -17 c-3 -8 -6 -5 -6 6 -1 11 2 17 5
13 3 -3 4 -12 1 -19z m-289 -24 c-3 -14 -5 -12 -10 9 -3 19 -2 25 4 19 6 -6 8
-18 6 -28z m-684 -38 c-3 -15 -8 -25 -11 -23 -2 3 -1 17 3 31 3 15 8 25 11 23
2 -3 1 -17 -3 -31z m2825 -16 c0 -9 -4 -8 -9 5 -5 11 -9 27 -9 35 0 9 4 8 9
-5 5 -11 9 -27 9 -35z m-1868 17 c-10 -9 -11 -8 -5 6 3 10 9 15 12 12 3 -3 0
-11 -7 -18z m-246 -17 l20 -25 -22 19 c-13 11 -23 24 -23 29 0 6 1 8 3 6 1 -2
11 -15 22 -29z m235 -3 c0 -2 -10 -12 -22 -23 l-23 -19 19 23 c18 21 26 27 26
19z m-980 -137 c-11 -58 -17 -80 -14 -50 6 68 26 178 30 165 2 -6 -5 -57 -16
-115z m2896 -55 c17 -123 14 -369 -4 -387 -4 -4 -5 18 -1 49 16 126 8 271 -25
483 -6 35 -6 35 4 5 6 -16 17 -84 26 -150z m-2092 136 c-2 -3 -12 3 -22 13
-16 17 -16 18 5 5 12 -7 20 -15 17 -18z m121 9 c-3 -5 -1 -10 6 -10 7 0 10 -2
7 -5 -3 -3 -13 -2 -22 1 -14 5 -15 9 -4 15 17 11 20 11 13 -1z m111 -72 c25
-23 52 -56 60 -72 8 -17 9 -22 2 -11 -7 11 -37 44 -65 73 -63 62 -61 69 3 10z
m-336 18 c0 -2 -8 -10 -17 -17 -16 -13 -17 -12 -4 4 13 16 21 21 21 13z m-30
-39 c0 -2 -10 -12 -22 -23 l-23 -19 19 23 c18 21 26 27 26 19z m-60 -87 c-6
-11 -13 -20 -16 -20 -2 0 0 9 6 20 6 11 13 20 16 20 2 0 0 -9 -6 -20z m325
-10 c4 -12 15 -20 29 -20 32 0 56 -47 56 -113 0 -31 -5 -59 -11 -63 -6 -3 -8
-16 -5 -29 7 -26 -11 -85 -26 -85 -9 0 -28 -14 -85 -60 -21 -17 -56 -11 -113
18 -58 30 -66 45 -69 124 0 20 -5 38 -11 40 -18 6 21 141 49 169 30 31 46 36
123 38 48 1 58 -2 63 -19z m-953 -107 c-3 -82 8 -203 33 -368 l5 -30 -10 30
c-33 100 -54 465 -26 465 0 0 -1 -44 -2 -97z m1145 75 c-3 -8 -6 -5 -6 6 -1
11 2 17 5 13 3 -3 4 -12 1 -19z m228 -8 c10 -11 16 -20 13 -20 -3 0 -13 9 -23
20 -10 11 -16 20 -13 20 3 0 13 -9 23 -20z m-207 -51 c-3 -8 -7 -3 -11 10 -4
17 -3 21 5 13 5 -5 8 -16 6 -23z m240 -10 c-3 -8 -7 -3 -11 10 -4 17 -3 21 5
13 5 -5 8 -16 6 -23z m-888 -33 c0 -2 -8 -10 -17 -17 -16 -13 -17 -12 -4 4 13
16 21 21 21 13z m731 -13 c13 -16 12 -17 -3 -4 -10 7 -18 15 -18 17 0 8 8 3
21 -13z m-914 -15 c-3 -8 -6 -5 -6 6 -1 11 2 17 5 13 3 -3 4 -12 1 -19z m840
0 c-3 -8 -6 -5 -6 6 -1 11 2 17 5 13 3 -3 4 -12 1 -19z m1018 -19 c0 -8 5 -14
12 -14 6 0 15 -4 20 -9 5 -5 3 -6 -4 -2 -7 4 -13 3 -13 -3 0 -13 34 -23 105
-30 78 -8 83 -27 24 -87 -43 -44 -43 -44 -16 -44 15 0 27 5 27 11 0 6 9 9 20
6 11 -3 20 -1 20 4 0 5 -12 9 -26 9 -14 0 -23 4 -20 9 3 5 15 7 26 4 20 -5 25
10 21 58 -1 8 10 21 25 28 34 15 42 8 9 -9 -14 -7 -25 -17 -25 -22 0 -5 13 1
29 13 17 12 38 19 48 16 10 -2 27 -8 38 -11 11 -3 2 3 -20 14 -22 11 -33 20
-25 20 16 0 80 -36 80 -45 0 -4 -5 -3 -11 1 -7 4 -10 1 -7 -7 3 -8 10 -13 16
-12 15 4 3 -29 -16 -44 -9 -7 -11 -13 -4 -13 6 0 18 10 26 22 9 12 16 18 16
12 0 -19 -45 -55 -56 -44 -7 7 -22 6 -45 -4 l-34 -15 52 3 c70 5 85 -12 43
-48 -18 -15 -43 -26 -58 -25 -25 1 -24 2 6 9 19 4 39 13 45 20 9 10 9 11 -2 5
-24 -14 -90 -23 -88 -12 1 5 -4 12 -12 15 -9 3 -11 0 -6 -8 5 -9 4 -11 -4 -6
-6 4 -9 11 -7 15 3 4 0 13 -5 21 -7 11 -9 5 -7 -20 l3 -35 -85 -1 -85 -1 85 7
c58 4 0 7 -185 9 -148 2 -285 2 -303 1 -37 -2 -92 45 -92 79 0 15 -4 19 -17
14 -11 -4 -12 -8 -5 -11 7 -2 12 -8 12 -13 0 -6 -8 -6 -19 1 -14 7 -28 6 -53
-5 l-33 -15 42 4 c42 5 77 -14 53 -29 -6 -3 -8 -10 -5 -15 7 -12 -28 -30 -57
-29 -25 1 -19 4 26 14 45 10 26 14 -24 5 -28 -5 -50 -4 -57 2 -8 7 -19 5 -35
-6 -12 -9 -34 -16 -49 -16 -30 0 -98 48 -99 69 0 11 4 9 15 -5 14 -18 14 -17
4 8 -18 43 -1 89 42 112 32 17 40 18 68 7 18 -8 31 -21 31 -31 0 -15 6 -13 30
12 31 30 47 32 94 13 15 -7 17 -5 11 6 -5 9 -1 8 10 -3 17 -16 20 -16 47 7 31
26 63 31 88 15 10 -7 4 -8 -20 -4 -24 4 -41 0 -55 -11 -20 -16 -20 -16 1 -6
12 6 43 9 70 8 l49 -2 3 -52 c2 -42 7 -53 20 -54 14 0 13 -2 -3 -9 -17 -7 -15
-9 13 -9 31 -1 32 0 32 39 0 30 -4 40 -16 40 -10 0 -14 7 -12 23 3 20 8 22 75
22 39 0 69 4 66 8 -3 5 -18 7 -34 5 -15 -3 -26 -1 -23 4 8 13 47 9 68 -7 11
-8 14 -15 7 -15 -9 0 -8 -6 3 -22 9 -12 16 -39 16 -60 0 -34 3 -38 25 -38 23
0 25 4 25 40 0 30 -4 40 -16 40 -10 0 -14 7 -12 23 2 17 10 22 36 22 l32 1 0
-63 c0 -54 3 -63 18 -63 10 0 36 18 57 40 l39 40 -42 0 c-40 0 -42 2 -42 29 0
31 -21 46 -38 29 -8 -8 -16 -8 -27 2 -8 7 -15 9 -15 4 0 -4 -5 -3 -12 4 -9 9
-6 18 12 37 25 27 45 28 45 4z m-890 -9 c10 -11 16 -20 13 -20 -3 0 -13 9 -23
20 -10 11 -16 20 -13 20 3 0 13 -9 23 -20z m-718 -32 c-3 -7 -5 -2 -5 12 0 14
2 19 5 13 2 -7 2 -19 0 -25z m833 -3 c0 -1 -9 -5 -19 -8 -13 -3 -18 -1 -14 9
4 10 33 10 33 -1z m949 -1 c9 -8 -95 -2 -114 6 -12 4 7 6 45 3 36 -3 67 -7 69
-9z m-1008 -11 c12 -14 12 -16 0 -8 -9 5 -12 4 -8 -3 5 -7 16 -7 39 1 25 10
32 9 36 -1 3 -10 7 -10 20 0 10 7 6 0 -7 -14 -13 -15 -33 -28 -45 -30 -28 -4
-36 -64 -10 -82 31 -23 10 -46 -41 -46 -51 0 -72 23 -42 45 19 14 24 85 6 85
-21 0 -4 45 19 48 12 2 20 8 17 13 -10 15 2 10 16 -8z m191 1 c25 -13 36 -14
50 -5 28 17 33 13 7 -8 -22 -18 -23 -18 -56 1 -22 14 -42 18 -61 14 -20 -5
-23 -4 -12 4 21 14 36 12 72 -6z m128 6 c18 -12 2 -12 -25 0 -13 6 -15 9 -5 9
8 0 22 -4 30 -9z m217 4 c-3 -3 -12 -4 -19 -1 -8 3 -5 6 6 6 11 1 17 -2 13 -5z
m86 -1 c-7 -2 -21 -2 -30 0 -10 3 -4 5 12 5 17 0 24 -2 18 -5z m-1386 -35 c-3
-8 -6 -5 -6 6 -1 11 2 17 5 13 3 -3 4 -12 1 -19z m1625 -38 c-1 -29 -3 -55 -6
-58 -3 -3 -6 23 -6 58 0 35 3 61 6 57 3 -3 6 -29 6 -57z m-935 18 c-3 -7 -5
-2 -5 12 0 14 2 19 5 13 2 -7 2 -19 0 -25z m630 0 c-3 -7 -5 -2 -5 12 0 14 2
19 5 13 2 -7 2 -19 0 -25z m219 -15 c21 -8 18 -63 -3 -62 -11 0 -13 3 -5 6 18
7 15 31 -8 60 -11 14 -16 30 -12 37 4 7 8 2 10 -12 2 -13 10 -26 18 -29z
m-724 -30 l-6 -28 -7 25 c-7 24 -7 24 -9 -5 -2 -19 -4 -23 -7 -12 -6 25 3 47
20 47 10 0 13 -8 9 -27z m535 -20 c-3 -10 -5 -2 -5 17 0 19 2 27 5 18 2 -10 2
-26 0 -35z m343 44 c0 -2 -15 -16 -32 -33 -29 -26 -30 -26 -10 -2 22 24 22 27
5 31 -12 3 -9 5 10 6 15 0 27 0 27 -2z m90 -7 c0 -5 -5 -10 -11 -10 -5 0 -7 5
-4 10 3 6 8 10 11 10 2 0 4 -4 4 -10z m-1243 -22 c-3 -8 -6 -5 -6 6 -1 11 2
17 5 13 3 -3 4 -12 1 -19z m1203 -18 c0 -5 -5 -10 -11 -10 -5 0 -7 5 -4 10 3
6 8 10 11 10 2 0 4 -4 4 -10z m-586 -48 c17 -17 27 -32 23 -32 -11 0 -57 50
-57 62 0 6 1 9 3 7 1 -2 15 -19 31 -37z m1146 -37 c-7 -36 -14 -64 -17 -62 -2
3 2 34 8 71 7 36 14 64 17 61 2 -2 -1 -34 -8 -70z m-1623 33 c-3 -8 -6 -5 -6
6 -1 11 2 17 5 13 3 -3 4 -12 1 -19z m619 -36 c-16 -2 -32 0 -37 5 -5 5 7 7
29 4 34 -5 35 -6 8 -9z m-523 1 c-13 -2 -35 -2 -50 0 -16 2 -5 4 22 4 28 0 40
-2 28 -4z m460 0 c-7 -2 -21 -2 -30 0 -10 3 -4 5 12 5 17 0 24 -2 18 -5z m180
0 c-13 -2 -35 -2 -50 0 -16 2 -5 4 22 4 28 0 40 -2 28 -4z m100 0 c-13 -2 -35
-2 -50 0 -16 2 -5 4 22 4 28 0 40 -2 28 -4z m90 0 c-13 -2 -33 -2 -45 0 -13 2
-3 4 22 4 25 0 35 -2 23 -4z m-1078 -43 c3 -6 -1 -7 -9 -4 -18 7 -21 14 -7 14
6 0 13 -4 16 -10z m-106 -59 c0 -14 -1 -14 -6 -1 -3 8 -10 24 -15 35 -9 20 -9
20 6 1 9 -11 16 -27 15 -35z m-281 8 c-6 -16 -12 -28 -14 -26 -5 5 13 57 20
57 3 0 0 -14 -6 -31z m-679 -29 c0 -9 -4 -8 -9 5 -5 11 -9 27 -9 35 0 9 4 8 9
-5 5 -11 9 -27 9 -35z m908 44 c-3 -3 -12 -4 -19 -1 -8 3 -5 6 6 6 11 1 17 -2
13 -5z m214 -11 c13 -16 12 -17 -3 -4 -10 7 -18 15 -18 17 0 8 8 3 21 -13z
m1693 -17 c-3 -15 -8 -25 -11 -23 -2 3 -1 17 3 31 3 15 8 25 11 23 2 -3 1 -17
-3 -31z m-1997 18 c-3 -3 -12 -4 -19 -1 -8 3 -5 6 6 6 11 1 17 -2 13 -5z m46
-1 c-7 -2 -19 -2 -25 0 -7 3 -2 5 12 5 14 0 19 -2 13 -5z m-211 -75 c-8 -8 -9
-4 -5 13 4 13 8 18 11 10 2 -7 -1 -18 -6 -23z m-175 -30 c-3 -7 -5 -2 -5 12 0
14 2 19 5 13 2 -7 2 -19 0 -25z m-448 -18 c0 -10 -3 -8 -9 5 -12 27 -12 43 0
25 5 -8 9 -22 9 -30z m21 -55 c0 -5 -5 -3 -10 5 -5 8 -10 20 -10 25 0 6 5 3
10 -5 5 -8 10 -19 10 -25z m2711 8 c-12 -20 -14 -14 -5 12 4 9 9 14 11 11 3
-2 0 -13 -6 -23z m-2160 -40 c-12 -20 -14 -14 -5 12 4 9 9 14 11 11 3 -2 0
-13 -6 -23z m529 23 c0 -2 -8 -10 -17 -17 -16 -13 -17 -12 -4 4 13 16 21 21
21 13z m-955 -226 c74 -118 214 -270 323 -353 65 -49 69 -60 5 -15 -72 51
-232 215 -294 304 -55 76 -159 261 -159 280 0 5 22 -31 48 -81 27 -49 61 -110
77 -135z m405 174 c0 -2 -9 0 -20 6 -11 6 -20 13 -20 16 0 2 9 0 20 -6 11 -6
20 -13 20 -16z m2120 -61 c-113 -211 -248 -367 -430 -499 -30 -22 -62 -44 -70
-49 -28 -15 3 11 80 67 88 64 209 183 275 268 49 64 144 219 165 270 7 17 15
28 17 26 3 -3 -14 -40 -37 -83z m-2090 -550 c0 -7 -39 17 -46 28 -3 6 5 3 20
-6 14 -10 26 -19 26 -22z m280 -133 c8 -5 11 -10 5 -10 -5 0 -17 5 -25 10 -8
5 -10 10 -5 10 6 0 17 -5 25 -10z m1040 0 c-8 -5 -19 -10 -25 -10 -5 0 -3 5 5
10 8 5 20 10 25 10 6 0 3 -5 -5 -10z m-980 -20 c18 -12 2 -12 -25 0 -13 6 -15
9 -5 9 8 0 22 -4 30 -9z m925 0 c-27 -12 -43 -12 -25 0 8 5 22 9 30 9 10 0 8
-3 -5 -9z m-860 -20 c13 -5 14 -9 5 -9 -8 0 -24 4 -35 9 -13 5 -14 9 -5 9 8 0
24 -4 35 -9z m800 0 c-11 -5 -27 -9 -35 -9 -9 0 -8 4 5 9 11 5 27 9 35 9 9 0
8 -4 -5 -9z m-645 -30 c58 -10 92 -19 75 -19 -31 0 -221 36 -195 37 8 1 62 -7
120 -18z m505 -1 c-49 -10 -103 -18 -120 -18 -34 1 146 36 185 36 14 1 -15 -8
-65 -18z m-162 -22 c-6 -9 -220 -9 -226 1 -3 4 48 7 113 7 65 0 116 -3 113 -8z"/>
<path d="M848 1611 c-55 -32 -70 -221 -18 -221 9 0 24 -16 34 -35 13 -24 26
-35 42 -35 13 0 26 -5 29 -10 7 -12 58 36 61 57 1 7 11 25 23 41 15 22 17 32
9 40 -7 7 -12 28 -13 47 0 20 -7 40 -15 45 -8 5 -19 26 -25 47 -10 37 -12 38
-55 39 -25 0 -57 -6 -72 -15z"/>
<path d="M2195 1450 c-26 -28 -15 -31 12 -3 12 13 19 23 14 23 -4 0 -16 -9
-26 -20z"/>
<path d="M2210 1430 c0 -5 5 -10 10 -10 6 0 10 5 10 10 0 6 -4 10 -10 10 -5 0
-10 -4 -10 -10z"/>
<path d="M2290 1378 c0 -5 23 -8 51 -8 l51 0 -57 -65 -57 -65 66 0 c56 0 66 3
65 18 0 10 -3 12 -6 5 -3 -8 -24 -13 -55 -13 l-50 0 51 56 c28 30 51 59 51 64
0 4 -25 10 -55 12 -30 1 -55 0 -55 -4z"/>
<path d="M1502 1357 c-27 -29 -28 -71 -2 -97 20 -20 74 -28 84 -12 3 5 -8 6
-25 4 -37 -6 -69 21 -69 58 0 50 66 82 89 43 9 -16 10 -16 11 -2 0 35 -58 39
-88 6z"/>
<path d="M1652 1364 c-12 -8 -22 -19 -22 -25 0 -5 9 0 20 11 24 24 63 26 80 5
16 -19 17 -18 -43 -40 -42 -16 -50 -16 -59 -4 -6 10 -7 7 -2 -11 14 -53 63
-76 104 -50 10 6 3 8 -22 3 -36 -5 -68 7 -68 27 0 4 21 15 48 25 63 24 69 31
47 55 -22 24 -52 26 -83 4z"/>
<path d="M1750 1373 c0 -6 6 -15 13 -21 10 -8 16 -5 27 11 12 19 11 20 -2 10
-11 -10 -17 -10 -26 -1 -8 8 -12 8 -12 1z"/>
<path d="M1810 1360 c-42 -42 -12 -120 47 -120 14 0 35 7 45 17 17 15 18 15
18 0 0 -10 8 -17 18 -17 14 0 14 2 3 9 -9 6 -14 28 -14 67 0 33 -2 53 -4 47
-4 -10 -10 -9 -26 2 -30 21 -63 19 -87 -5z m90 -10 c24 -24 25 -48 4 -78 -31
-44 -104 -20 -104 35 0 57 61 82 100 43z"/>
<path d="M1821 1328 c-13 -33 4 -58 39 -58 23 0 31 5 36 25 8 31 -10 55 -43
55 -15 0 -27 -8 -32 -22z m64 -18 c0 -16 -6 -25 -18 -26 -12 -1 -13 -1 -2 3 8
2 15 14 15 25 0 16 -5 19 -25 16 -14 -3 -25 -1 -25 4 0 5 12 8 28 6 21 -2 27
-8 27 -28z m-47 -25 c-3 -3 -9 2 -12 12 -6 14 -5 15 5 6 7 -7 10 -15 7 -18z"/>
<path d="M1990 1376 c0 -2 7 -6 15 -10 8 -3 15 -1 15 4 0 6 -7 10 -15 10 -8 0
-15 -2 -15 -4z"/>
<path d="M2050 1370 c-11 -8 -8 -9 13 -4 40 9 57 -10 57 -66 0 -38 -4 -50 -17
-53 -10 -3 -2 -5 17 -5 19 0 29 2 23 5 -8 3 -13 23 -13 49 0 25 -5 54 -10 65
-12 21 -46 25 -70 9z"/>
<path d="M2190 1376 c0 -2 7 -6 15 -10 8 -3 15 -1 15 4 0 6 -7 10 -15 10 -8 0
-15 -2 -15 -4z"/>
<path d="M2472 1364 c-12 -8 -22 -20 -22 -26 0 -7 6 -4 13 5 6 10 26 21 42 26
21 7 24 10 10 10 -11 1 -31 -6 -43 -15z"/>
<path d="M2549 1357 c17 -21 18 -20 -42 -42 -42 -16 -50 -16 -59 -4 -6 10 -7
7 -2 -11 14 -53 63 -76 104 -50 10 6 3 8 -22 3 -36 -5 -68 7 -68 27 0 4 21 15
48 25 63 24 70 31 47 53 -18 16 -18 16 -6 -1z"/>
<path d="M1514 1336 c-13 -33 0 -61 30 -64 16 -2 32 0 37 5 5 5 -6 7 -27 5
-34 -4 -35 -3 -32 24 3 27 38 50 38 25 0 -6 -7 -8 -15 -5 -11 4 -15 0 -15 -16
0 -20 4 -22 34 -17 31 5 34 3 39 -21 10 -48 -51 -69 -103 -36 l-25 16 24 -21
c28 -25 68 -27 100 -5 17 12 26 13 34 5 6 -6 15 -11 20 -11 6 0 -2 11 -17 25
-14 13 -26 35 -26 49 0 19 -4 23 -20 19 -15 -4 -20 0 -20 16 0 16 -6 21 -25
21 -14 0 -28 -6 -31 -14z"/>
<path d="M1660 1335 c-11 -13 -8 -13 19 -4 35 12 40 19 12 19 -10 0 -24 -7
-31 -15z"/>
<path d="M2052 1338 c-7 -7 -12 -25 -12 -40 0 -24 4 -28 30 -28 28 0 30 2 30
40 0 32 -4 40 -18 40 -10 0 -23 -5 -30 -12z m37 -30 c-2 -31 -2 -31 -6 -5 -2
15 -9 27 -14 27 -5 0 -10 -12 -10 -27 -1 -18 -3 -22 -6 -10 -7 25 3 47 22 47
11 0 15 -9 14 -32z"/>
<path d="M2480 1335 c-11 -13 -8 -13 19 -4 35 12 40 19 12 19 -10 0 -24 -7
-31 -15z"/>
<path d="M2573 1255 c0 -8 4 -12 9 -9 5 3 6 10 3 15 -9 13 -12 11 -12 -6z"/>
<path d="M1999 1249 c-10 -6 -4 -9 19 -9 17 0 32 2 32 4 0 9 -39 13 -51 5z"/>
<path d="M2205 1249 c-16 -6 -14 -8 13 -8 33 -1 41 4 20 12 -7 2 -22 1 -33 -4z"/>
<path d="M1368 1373 c7 -3 12 -26 12 -63 0 -47 -3 -59 -17 -63 -10 -3 0 -5 22
-5 22 0 32 2 23 5 -14 3 -18 15 -18 45 0 25 7 50 18 62 14 17 14 18 1 8 -14
-10 -18 -10 -23 3 -3 8 -11 15 -18 14 -10 0 -10 -2 0 -6z"/>
</g>
</svg>
